<?xml version="1.0" encoding="UTF-8" standalone="no"?>
<svg
   xmlns:dc="http://purl.org/dc/elements/1.1/"
   xmlns:cc="http://creativecommons.org/ns#"
   xmlns:rdf="http://www.w3.org/1999/02/22-rdf-syntax-ns#"
   xmlns:svg="http://www.w3.org/2000/svg"
   xmlns="http://www.w3.org/2000/svg"
   xmlns:sodipodi="http://sodipodi.sourceforge.net/DTD/sodipodi-0.dtd"
   xmlns:inkscape="http://www.inkscape.org/namespaces/inkscape"
   width="400pt"
   height="323pt"
   viewBox="0 0 400 323"
   version="1.1"
   id="svg3124"
   inkscape:version="0.48.2 r9819"
   sodipodi:docname="gray_world.svg">
  <metadata
     id="metadata3135">
    <rdf:RDF>
      <cc:Work
         rdf:about="">
        <dc:format>image/svg+xml</dc:format>
        <dc:type
           rdf:resource="http://purl.org/dc/dcmitype/StillImage" />
        <dc:title></dc:title>
      </cc:Work>
    </rdf:RDF>
  </metadata>
  <defs
     id="defs3133" />
  <sodipodi:namedview
     pagecolor="#ffffff"
     bordercolor="#666666"
     borderopacity="1"
     objecttolerance="10"
     gridtolerance="10"
     guidetolerance="10"
     inkscape:pageopacity="0"
     inkscape:pageshadow="2"
     inkscape:window-width="1542"
     inkscape:window-height="801"
     id="namedview3131"
     showgrid="true"
     inkscape:zoom="37.409288"
     inkscape:cx="285.22088"
     inkscape:cy="171.96349"
     inkscape:window-x="243"
     inkscape:window-y="215"
     inkscape:window-maximized="0"
     inkscape:current-layer="surface1">
    <inkscape:grid
       type="xygrid"
       id="grid4344" />
  </sodipodi:namedview>
  <g
     id="surface1">
    <path
       style="fill:#444545;fill-opacity:1;fill-rule:nonzero;stroke:none"
       d="m 333.55859,303.01562 c -0.5495,0.39457 0.14572,-0.43543 0,0 z"
       id="path4341" />
    <path
       style="fill:#444545;fill-opacity:1;fill-rule:nonzero;stroke:none"
       d="m 333.73047,303.17969 c -0.53042,-0.11333 0.52948,-0.42364 0,0 z"
       id="path4339" />
    <path
       style="fill:#444545;fill-opacity:1;fill-rule:nonzero;stroke:none"
       d="m 53.203125,305.26172 c -1.429519,0.004 -2.894954,2.75965 -3.105439,0.22258 -0.633151,-1.26994 -0.630077,-2.03534 0.238292,-2.91419 -0.861986,-1.87928 3.273994,0.48248 3.17577,1.66044 0.964847,0.16041 0.0453,0.84097 -0.308623,1.03117 z"
       id="path4337" />
    <path
       style="fill:#444545;fill-opacity:1;fill-rule:nonzero;stroke:none"
       d="m 47.789062,300.79297 c -1.318543,0.33633 0.206684,-0.82041 0,0 z"
       id="path4335" />
    <path
       style="fill:#444545;fill-opacity:1;fill-rule:nonzero;stroke:none"
       d="m 46.578125,299.97266 c -2.133405,-0.80655 1.311758,-0.95529 0,0 z"
       id="path4333" />
    <path
       style="fill:#444545;fill-opacity:1;fill-rule:nonzero;stroke:none"
       d="m 48.050781,299.39453 c 1.635733,-0.74044 2.217904,1.64492 0.105473,1.08248 0.04257,-0.6914 -1.777097,-1.8565 -0.183569,-1.21855 0.03858,0.0196 0.02221,0.12033 0.0781,0.13607 z"
       id="path4331" />
    <path
       style="fill:#444545;fill-opacity:1;fill-rule:nonzero;stroke:none"
       d="m 46.570312,298.40234 c 2.228333,0.44097 -3.534864,0.31467 -0.49216,-0.12556 l 0.210937,0.043 0.281223,0.0826 z"
       id="path4329" />
    <path
       style="fill:#444545;fill-opacity:1;fill-rule:nonzero;stroke:none"
       d="m 33.800781,296.58203 c -0.08206,0.13215 0.0097,-0.10094 0,0 z"
       id="path4327" />
    <path
       style="fill:#444545;fill-opacity:1;fill-rule:nonzero;stroke:none"
       d="m 43.636719,297.45703 c 0.238722,1.60766 -3.605109,-0.824 -0.749952,-1.02748 0.347429,0.2969 0.181939,0.99218 0.749952,1.02748 z"
       id="path4325" />
    <path
       style="fill:#444545;fill-opacity:1;fill-rule:nonzero;stroke:none"
       d="m 35.261719,295.66016 c -1.417809,1.26732 0.808573,-1.46915 0,0 z"
       id="path4323" />
    <path
       style="fill:#444545;fill-opacity:1;fill-rule:nonzero;stroke:none"
       d="m 37.652344,295.68356 c -3.735986,-0.54047 2.162722,-2.73923 0,0 z"
       id="path4321" />
    <path
       style="fill:#444545;fill-opacity:1;fill-rule:nonzero;stroke:none"
       d="m 28.847656,291.28513 c -0.102959,0.0108 0.05292,-0.0947 0,0 z"
       id="path4319" />
    <path
       style="fill:#444545;fill-opacity:1;fill-rule:nonzero;stroke:none"
       d="m 19.175781,289.27341 c -0.09738,0.045 0.01036,-0.14987 0,0 z"
       id="path4317" />
    <path
       style="fill:#444545;fill-opacity:1;fill-rule:nonzero;stroke:none"
       d="m 310.36719,285.50778 c -0.54861,0.0585 0.55212,-0.23289 0,0 z"
       id="path4315" />
    <path
       style="fill:#444545;fill-opacity:1;fill-rule:nonzero;stroke:none"
       d="m 309.17187,285.50378 c -0.38205,-0.26136 0.25918,-0.23599 0,0 z"
       id="path4313" />
    <path
       style="fill:#444545;fill-opacity:1;fill-rule:nonzero;stroke:none"
       d="m 310.57422,285.47258 c -0.10429,-0.35768 0.57238,-0.0134 0,0 z"
       id="path4311" />
    <path
       style="fill:#444545;fill-opacity:1;fill-rule:nonzero;stroke:none"
       d="m 311.01953,285.33195 c -0.71918,-0.63726 0.99057,-0.30657 0,0 z"
       id="path4309" />
    <path
       style="fill:#444545;fill-opacity:1;fill-rule:nonzero;stroke:none"
       d="m 311.41016,285.15226 c -0.43706,-0.26555 0.15469,-0.27735 0,0 z"
       id="path4307" />
    <path
       style="fill:#444545;fill-opacity:1;fill-rule:nonzero;stroke:none"
       d="m 312.70312,284.88273 c -0.38907,0.0451 0.56456,-0.12205 0,0 z"
       id="path4305" />
    <path
       style="fill:#444545;fill-opacity:1;fill-rule:nonzero;stroke:none"
       d="m 311.85937,285.17961 c -0.47599,-0.9507 -0.14571,-0.23082 0,0 z"
       id="path4303" />
    <path
       style="fill:#444545;fill-opacity:1;fill-rule:nonzero;stroke:none"
       d="m 313.19531,284.74211 c -0.66841,0.27363 0.55047,-0.31756 0,0 z"
       id="path4301" />
    <path
       style="fill:#444545;fill-opacity:1;fill-rule:nonzero;stroke:none"
       d="m 313.625,284.53117 c 0.0286,-0.26085 0.43609,-0.01 0,0 z"
       id="path4299" />
    <path
       style="fill:#444545;fill-opacity:1;fill-rule:nonzero;stroke:none"
       d="m 314.14453,284.26164 c -0.44414,0.32882 0.10469,-0.21551 0,0 z"
       id="path4297" />
    <path
       style="fill:#444545;fill-opacity:1;fill-rule:nonzero;stroke:none"
       d="m 314.32812,284.12492 c -0.24344,0.0733 0.32204,-0.30138 0,0 z"
       id="path4295" />
    <path
       style="fill:#444545;fill-opacity:1;fill-rule:nonzero;stroke:none"
       d="m 7.605469,283.73429 c -0.076924,0.0406 -0.074474,-0.16573 0,0 z"
       id="path4293" />
    <path
       style="fill:#444545;fill-opacity:1;fill-rule:nonzero;stroke:none"
       d="m 314.57031,283.95695 c 0.0501,-0.0596 1.88151,-2.83511 0.72209,-0.76959 -0.62554,-0.18939 -0.41869,0.58572 -0.72209,0.76959 z"
       id="path4291" />
    <path
       style="fill:#444545;fill-opacity:1;fill-rule:nonzero;stroke:none"
       d="m 315.80859,282.18742 c 0.4081,-1.03707 -0.008,-0.0109 0,0 z"
       id="path4289" />
    <path
       style="fill:#444545;fill-opacity:1;fill-rule:nonzero;stroke:none"
       d="m 316.02734,281.14445 c -0.288,-0.0944 0.23393,-0.47676 0,0 z"
       id="path4287" />
    <path
       style="fill:#444545;fill-opacity:1;fill-rule:nonzero;stroke:none"
       d="m 310.68359,280.46086 c -0.39988,-0.18053 0.31464,-0.32871 0,0 z"
       id="path4285" />
    <path
       style="fill:#444545;fill-opacity:1;fill-rule:nonzero;stroke:none"
       d="m 309.13281,278.09367 c 1.17011,0.67226 -1.10691,-0.89027 0,0 z"
       id="path4283" />
    <path
       style="fill:#444545;fill-opacity:1;fill-rule:nonzero;stroke:none"
       d="m 308.79687,277.45695 c -0.248,-0.17467 -0.0647,-0.64259 0,0 z"
       id="path4281" />
    <path
       style="fill:#444545;fill-opacity:1;fill-rule:nonzero;stroke:none"
       d="m 309.29687,277.94523 c -0.51902,-0.66844 -0.16303,-1.27647 0.0123,-0.0315 l 0,0.0156 -0.0123,0.0159 z"
       id="path4279" />
    <path
       style="fill:#444545;fill-opacity:1;fill-rule:nonzero;stroke:none"
       d="m 308.64844,277.04679 c -0.27747,-0.56536 0.13945,-0.36976 0,0 z"
       id="path4277" />
    <path
       style="fill:#444545;fill-opacity:1;fill-rule:nonzero;stroke:none"
       d="m 256.27734,279.52336 c -0.27371,-0.70155 -0.98269,-4.42475 -0.72213,-4.12524 -0.14161,1.43002 0.75542,2.71781 0.72213,4.12524 z"
       id="path4275" />
    <path
       style="fill:#444545;fill-opacity:1;fill-rule:nonzero;stroke:none"
       d="m 307.51172,274.66398 c -0.46064,-0.26217 -0.37426,-0.82493 0,0 z"
       id="path4273" />
    <path
       style="fill:#444545;fill-opacity:1;fill-rule:nonzero;stroke:none"
       d="m 255.55859,275.06633 c -0.18609,-1.25966 2.23455,-3.85201 0.402,-1.14813 -0.21541,0.35327 -0.24128,0.78613 -0.402,1.14813 z"
       id="path4271" />
    <path
       style="fill:#444545;fill-opacity:1;fill-rule:nonzero;stroke:none"
       d="m 316.01953,275.18351 c -0.80617,-1.26449 -1.33452,-4.21678 -0.41022,-1.00032 0.14979,0.32417 0.34417,0.64514 0.41022,1.00032 z"
       id="path4269" />
    <path
       style="fill:#444545;fill-opacity:1;fill-rule:nonzero;stroke:none"
       d="m 257.29297,271.85148 c -1.51043,2.15756 0.68123,-1.66236 0,0 z"
       id="path4267" />
    <path
       style="fill:#444545;fill-opacity:1;fill-rule:nonzero;stroke:none"
       d="m 258.47266,270.91008 c -2.81333,1.78735 1.64347,-1.42559 0.082,-0.0506 l -0.082,0.0506 z"
       id="path4265" />
    <path
       style="fill:#444545;fill-opacity:1;fill-rule:nonzero;stroke:none"
       d="m 259.14453,270.36711 c 0.60986,-0.10244 0.39661,-0.0631 0,0 z"
       id="path4263" />
    <path
       style="fill:#444545;fill-opacity:1;fill-rule:nonzero;stroke:none"
       d="m 314.26562,270.94133 c -0.73229,-1.51576 0.60798,-2.04371 0,0 z"
       id="path4261" />
    <path
       style="fill:#444545;fill-opacity:1;fill-rule:nonzero;stroke:none"
       d="m 278.41797,267.78898 c -0.25857,0.0139 -0.36662,-0.13347 0,0 z"
       id="path4259" />
    <path
       style="fill:#444545;fill-opacity:1;fill-rule:nonzero;stroke:none"
       d="m 278.88672,267.79698 c -0.20138,-0.13454 0.82583,-0.16258 0,0 z"
       id="path4257" />
    <path
       style="fill:#444545;fill-opacity:1;fill-rule:nonzero;stroke:none"
       d="m 280.30469,267.74618 c 0.0756,-0.19422 0.33648,-0.071 0,0 z"
       id="path4255" />
    <path
       style="fill:#444545;fill-opacity:1;fill-rule:nonzero;stroke:none"
       d="m 281.56641,267 c -0.64953,0.46494 0.35214,-0.38972 0,0 z"
       id="path4253" />
    <path
       style="fill:#444545;fill-opacity:1;fill-rule:nonzero;stroke:none"
       d="m 281.73437,266.85547 c -0.11855,-0.0518 0.21566,-0.15869 0,0 z"
       id="path4251" />
    <path
       style="fill:#444545;fill-opacity:1;fill-rule:nonzero;stroke:none"
       d="m 281.97266,266.72656 c -0.28333,0.0951 0.003,-0.27664 0,0 z"
       id="path4249" />
    <path
       style="fill:#444545;fill-opacity:1;fill-rule:nonzero;stroke:none"
       d="m 263.53125,267.58203 c 0.41469,-0.81907 2.18224,-1.36513 0,0 z"
       id="path4247" />
    <path
       style="fill:#444545;fill-opacity:1;fill-rule:nonzero;stroke:none"
       d="m 284.39453,266.07031 c -0.47294,0.17815 0.2074,-0.22732 0,0 z"
       id="path4245" />
    <path
       style="fill:#444545;fill-opacity:1;fill-rule:nonzero;stroke:none"
       d="m 282.88281,265.90625 c -0.24365,-0.30508 0.43749,-0.0883 0,0 z"
       id="path4243" />
    <path
       style="fill:#444545;fill-opacity:1;fill-rule:nonzero;stroke:none"
       d="m 284.71094,265.87895 c -0.13939,-0.13088 0.41112,-0.37065 0,0 z"
       id="path4241" />
    <path
       style="fill:#444545;fill-opacity:1;fill-rule:nonzero;stroke:none"
       d="m 275.20703,266.01957 c -2.54589,0.0591 0.86137,-1.50207 0,0 z"
       id="path4239" />
    <path
       style="fill:#444545;fill-opacity:1;fill-rule:nonzero;stroke:none"
       d="m 298.64844,265.42973 c -0.74791,-0.19809 -0.3762,-0.0861 0,0 z"
       id="path4237" />
    <path
       style="fill:#444545;fill-opacity:1;fill-rule:nonzero;stroke:none"
       d="m 283.48828,265.18363 c -0.45168,-3.4e-4 0.14123,-0.37946 0,0 z"
       id="path4235" />
    <path
       style="fill:#444545;fill-opacity:1;fill-rule:nonzero;stroke:none"
       d="m 299.13672,265.52348 c -1.59875,0.35193 2.86576,-1.3854 0,0 z"
       id="path4233" />
    <path
       style="fill:#444545;fill-opacity:1;fill-rule:nonzero;stroke:none"
       d="m 283.50391,264.99223 c -0.54819,0.18083 -0.11269,-0.63888 0,0 z"
       id="path4231" />
    <path
       style="fill:#444545;fill-opacity:1;fill-rule:nonzero;stroke:none"
       d="m 283.99219,264.86723 c -0.5828,-0.14496 0.24534,-0.32076 0,0 z"
       id="path4229" />
    <path
       style="fill:#444545;fill-opacity:1;fill-rule:nonzero;stroke:none"
       d="m 300.30859,264.83983 c -0.35585,0.031 0.64251,-0.27821 0,0 z"
       id="path4227" />
    <path
       style="fill:#444545;fill-opacity:1;fill-rule:nonzero;stroke:none"
       d="m 285.53516,264.84783 c 0.032,-1.45857 0.025,-1.1576 0,0 z"
       id="path4225" />
    <path
       style="fill:#444545;fill-opacity:1;fill-rule:nonzero;stroke:none"
       d="m 283.87891,263.77361 c -0.0573,-0.59299 1.05621,-0.64619 0,0 z"
       id="path4223" />
    <path
       style="fill:#444545;fill-opacity:1;fill-rule:nonzero;stroke:none"
       d="m 286.96875,263.10564 c -0.63885,0.075 0.14495,-0.24385 0,0 z"
       id="path4221" />
    <path
       style="fill:#444545;fill-opacity:1;fill-rule:nonzero;stroke:none"
       d="m 284.70703,263.12904 c -0.21698,0.0463 0.2559,-0.36673 0,0 z"
       id="path4219" />
    <path
       style="fill:#444545;fill-opacity:1;fill-rule:nonzero;stroke:none"
       d="m 286.56641,263.07044 c -1.57093,-0.16346 -0.3682,-0.20768 0,0 z"
       id="path4217" />
    <path
       style="fill:#444545;fill-opacity:1;fill-rule:nonzero;stroke:none"
       d="m 288.17187,262.96107 c -2.20516,0.31882 0.38551,-0.30936 0,0 z"
       id="path4215" />
    <path
       style="fill:#444545;fill-opacity:1;fill-rule:nonzero;stroke:none"
       d="m 293.66797,262.31263 c -1.32523,0.095 -4.44499,0.60723 -0.86723,-0.0114 0.28718,-0.0194 0.58547,-0.0708 0.86723,0.0114 z"
       id="path4213" />
    <path
       style="fill:#444545;fill-opacity:1;fill-rule:nonzero;stroke:none"
       d="m 311.50391,261.01575 c -0.54878,-0.76622 0.50806,-1.57714 0,0 z"
       id="path4211" />
    <path
       style="fill:#444545;fill-opacity:1;fill-rule:nonzero;stroke:none"
       d="m 181.72656,252.34779 c -1.39167,-1.3357 -0.30908,-1.13362 0,0 z"
       id="path4209" />
    <path
       style="fill:#444545;fill-opacity:1;fill-rule:nonzero;stroke:none"
       d="m 318.82812,251.57044 c -0.0567,-0.33364 0.26689,-0.35678 0,0 z"
       id="path4207" />
    <path
       style="fill:#444545;fill-opacity:1;fill-rule:nonzero;stroke:none"
       d="m 178.08203,250.67591 c -1.09594,-0.18849 0.21813,-0.49419 0,0 z"
       id="path4205" />
    <path
       style="fill:#444545;fill-opacity:1;fill-rule:nonzero;stroke:none"
       d="m 182.09375,250.28529 c -1.80091,-0.16166 -0.93023,-1.65311 0,0 z"
       id="path4203" />
    <path
       style="fill:#444545;fill-opacity:1;fill-rule:nonzero;stroke:none"
       d="m 323.75781,248.00794 c -0.55863,-0.028 0.34255,-0.52341 0,0 z"
       id="path4201" />
    <path
       style="fill:#444545;fill-opacity:1;fill-rule:nonzero;stroke:none"
       d="m 176.00781,247.26966 c 0.81087,1.06866 -1.72067,0.005 0,0 z"
       id="path4199" />
    <path
       style="fill:#444545;fill-opacity:1;fill-rule:nonzero;stroke:none"
       d="m 175.08594,247.25016 c -1.41993,0.39217 -4.5e-4,-0.47006 0,0 z"
       id="path4197" />
    <path
       style="fill:#444545;fill-opacity:1;fill-rule:nonzero;stroke:none"
       d="m 176.59375,247.01578 c 3.1466,-0.0178 -0.60293,1.10106 0,0 z"
       id="path4195" />
    <path
       style="fill:#444545;fill-opacity:1;fill-rule:nonzero;stroke:none"
       d="m 324.14062,246.9025 c -0.23168,-0.0653 0.3816,-0.54359 0,0 z"
       id="path4193" />
    <path
       style="fill:#444545;fill-opacity:1;fill-rule:nonzero;stroke:none"
       d="m 328.76562,244.66813 c -0.88379,-0.2411 -0.15594,-0.35818 0,0 z"
       id="path4191" />
    <path
       style="fill:#444545;fill-opacity:1;fill-rule:nonzero;stroke:none"
       d="m 328.24609,244.38297 c -1.61551,0.26047 -1.77656,0.16183 -0.0314,-0.0157 l 0.0314,0.0157 z"
       id="path4189" />
    <path
       style="fill:#444545;fill-opacity:1;fill-rule:nonzero;stroke:none"
       d="m 328.77734,244.88297 c 0.60045,-1.33707 1.73983,-2.0506 0.2817,-0.53509 -0.13652,0.15607 -0.17085,0.3659 -0.2817,0.53509 z"
       id="path4187" />
    <path
       style="fill:#444545;fill-opacity:1;fill-rule:nonzero;stroke:none"
       d="m 330.40625,242.94157 c -0.68705,0.49577 0.33599,-0.43609 0,0 z"
       id="path4185" />
    <path
       style="fill:#444545;fill-opacity:1;fill-rule:nonzero;stroke:none"
       d="m 330.60547,242.79313 c 0.80061,-0.6542 1.3505,-0.67809 0,0 z"
       id="path4183" />
    <path
       style="fill:#444545;fill-opacity:1;fill-rule:nonzero;stroke:none"
       d="m 332.30469,242.09782 c 0.003,0.92001 -0.038,-4.0271 0.28125,-1.49241 -0.18389,0.42367 -0.002,1.07232 -0.28125,1.49241 z"
       id="path4181" />
    <path
       style="fill:#444545;fill-opacity:1;fill-rule:nonzero;stroke:none"
       d="m 331.98047,239.57047 c -0.59689,-0.12148 -0.38014,-1.22882 0,0 z"
       id="path4179" />
    <path
       style="fill:#444545;fill-opacity:1;fill-rule:nonzero;stroke:none"
       d="m 330.97266,233.93375 c -0.0659,-0.16759 0.30444,-0.23257 0,0 z"
       id="path4177" />
    <path
       style="fill:#444545;fill-opacity:1;fill-rule:nonzero;stroke:none"
       d="m 331.38672,233.37907 c -0.41589,0.44784 0.23555,-0.75158 0,0 z"
       id="path4175" />
    <path
       style="fill:#444545;fill-opacity:1;fill-rule:nonzero;stroke:none"
       d="m 331.71094,232.6525 c -0.16605,0.0575 0.30557,-0.569 0,0 z"
       id="path4173" />
    <path
       style="fill:#444545;fill-opacity:1;fill-rule:nonzero;stroke:none"
       d="m 169.80469,229.75407 c -0.19422,0.003 0.0893,-0.12919 0,0 z"
       id="path4171" />
    <path
       style="fill:#444545;fill-opacity:1;fill-rule:nonzero;stroke:none"
       d="m 169.15625,229.61735 c -0.19851,0.0149 -0.0703,-0.19526 0,0 z"
       id="path4169" />
    <path
       style="fill:#444545;fill-opacity:1;fill-rule:nonzero;stroke:none"
       d="m 332.91406,230.59391 c 0.56095,-1.43788 1.43397,-2.49501 0,0 z"
       id="path4167" />
    <path
       style="fill:#444545;fill-opacity:1;fill-rule:nonzero;stroke:none"
       d="m 336.51172,223.60172 c -1.03179,0.72109 0.28677,-0.77975 0,0 z"
       id="path4165" />
    <path
       style="fill:#444545;fill-opacity:1;fill-rule:nonzero;stroke:none"
       d="m 336.80078,223.12907 c 1.3146,-2.51283 0.11968,-0.29179 0,0 z"
       id="path4163" />
    <path
       style="fill:#444545;fill-opacity:1;fill-rule:nonzero;stroke:none"
       d="m 336.89448,218.60953 c -0.22518,-1.12892 1.32849,-0.42044 0,0 z"
       id="path4161" />
    <path
       style="fill:#444545;fill-opacity:1;fill-rule:nonzero;stroke:none"
       d="m 340.39448,218.03922 c -0.45564,0.12633 2.94882,-1.15785 0.70708,-0.2067 -0.2314,0.0846 -0.4699,0.14636 -0.70708,0.2067 z"
       id="path4159" />
    <path
       style="fill:#444545;fill-opacity:1;fill-rule:nonzero;stroke:none"
       d="m 343.76948,215.76188 c -2.83513,1.901 0.48505,0.36907 1.41402,0.28196 -2.2049,1.22166 -6.0975,2.1083 -7.01554,2.23078 0.86514,-0.57103 -1.52013,0.44182 -0.18708,-0.97642 1.72387,-1.08212 4.59998,-0.37442 5.7886,-1.53632 z"
       id="path4157" />
    <path
       style="fill:#444545;fill-opacity:1;fill-rule:nonzero;stroke:none"
       d="m 351.73042,214.81657 c 0.24147,1.12347 -1.52807,-0.39512 0,0 z"
       id="path4155" />
    <path
       style="fill:#444545;fill-opacity:1;fill-rule:nonzero;stroke:none"
       d="m 349.93745,214.67985 c -2.16643,0.97491 -0.35821,-1.59996 0,0 z"
       id="path4153" />
    <path
       style="fill:#444545;fill-opacity:1;fill-rule:nonzero;stroke:none"
       d="m 347.16011,214.20328 c -0.87312,-0.14069 1.24497,-1.88872 0,0 z"
       id="path4151" />
    <path
       style="fill:#444545;fill-opacity:1;fill-rule:nonzero;stroke:none"
       d="m 355.91792,201.81657 c -1.12302,-0.52784 0.44676,-0.44077 0,0 z"
       id="path4149" />
    <path
       style="fill:#444545;fill-opacity:1;fill-rule:nonzero;stroke:none"
       d="m 356.45307,201.22672 c -0.50103,-0.88933 0.29076,-0.45464 0,0 z"
       id="path4147" />
    <path
       style="fill:#444545;fill-opacity:1;fill-rule:nonzero;stroke:none"
       d="m 357.60932,200.89078 c -1.42011,-1.18652 1.6755,-1.27079 0,0 z"
       id="path4145" />
    <path
       style="fill:#444545;fill-opacity:1;fill-rule:nonzero;stroke:none"
       d="m 162.30073,194.44938 c -0.16982,-0.0716 0.25086,-0.25592 0,0 z"
       id="path4143" />
    <path
       style="fill:#444545;fill-opacity:1;fill-rule:nonzero;stroke:none"
       d="m 162.30073,189.92985 c -0.53807,-0.57395 0.17578,-0.4898 0,0 z"
       id="path4141" />
    <path
       style="fill:#444545;fill-opacity:1;fill-rule:nonzero;stroke:none"
       d="m 166.14839,185.94938 c -0.69482,-0.1033 0.23394,-1.14235 0,0 z"
       id="path4139" />
    <path
       style="fill:#444545;fill-opacity:1;fill-rule:nonzero;stroke:none"
       d="m 167.41401,185.2111 c -0.53991,-0.97054 0.85308,-0.81202 0,0 z"
       id="path4137" />
    <path
       style="fill:#444545;fill-opacity:1;fill-rule:nonzero;stroke:none"
       d="m 167.36711,183.93375 c -0.84122,-0.50872 0.31996,-1.17625 0,0 z"
       id="path4135" />
    <path
       style="fill:#444545;fill-opacity:1;fill-rule:nonzero;stroke:none"
       d="m 166.76554,181.68375 c -0.5031,-0.2686 0.0823,-0.84513 0,0 z"
       id="path4133" />
    <path
       style="fill:#444545;fill-opacity:1;fill-rule:nonzero;stroke:none"
       d="m 167.33586,180.18766 c -1.50862,-0.0315 2.05236,3.42427 -0.35924,1.17213 -1.17013,-0.17351 -0.0301,-2.68931 0.35924,-1.17213 z"
       id="path4131" />
    <path
       style="fill:#444545;fill-opacity:1;fill-rule:nonzero;stroke:none"
       d="m 166.24211,179.62125 c -1.13089,-0.25307 0.23398,-1.48324 0,0 z"
       id="path4129" />
    <path
       style="fill:#444545;fill-opacity:1;fill-rule:nonzero;stroke:none"
       d="m 165.59758,179.465 c -1.30752,-0.31743 -0.0837,-1.74786 0.12889,-0.0198 l -0.12889,0.0198 z"
       id="path4127" />
    <path
       style="fill:#444545;fill-opacity:1;fill-rule:nonzero;stroke:none"
       d="m 165.86711,178.05875 c 1.93885,0.34068 -1.38083,1.16054 0,0 z"
       id="path4125" />
    <path
       style="fill:#444545;fill-opacity:1;fill-rule:nonzero;stroke:none"
       d="m 165.41008,176.65641 c -0.4416,-0.0121 0.28852,-0.25797 0,0 z"
       id="path4123" />
    <path
       style="fill:#444545;fill-opacity:1;fill-rule:nonzero;stroke:none"
       d="m 225.11382,183.74045 c 0.2804,0.69719 1.05079,0.43783 1.60821,0.81435 0.57759,0.0657 1.38016,-0.31563 1.93974,0.28213 0.82871,0.44844 1.12172,0.90132 1.72676,1.47747 0.38004,0.70204 -0.17317,1.42778 -0.19109,1.9527 0.5016,0.0359 1.209,-0.348 1.67361,-0.64841 -0.21441,-0.76731 1.12142,-0.0582 1.26857,-0.84901 0.54109,-0.69086 1.52009,-0.11996 2.15004,-0.51643 0.18623,-0.62975 0.69977,-1.82355 1.27482,-0.96063 -0.35096,0.71634 0.8017,1.2128 -0.13762,1.51441 -0.43039,-0.24423 -0.63182,0.50713 -0.74362,0.21779 -0.1305,0.2407 -0.69667,0.87284 -0.2876,1.2152 0.22976,0.16001 0.31867,-0.26725 0.15151,0.12822 -0.60282,0.0271 -0.30049,-0.12834 -0.84458,0.19215 -0.34041,-0.19615 -0.84537,0.59998 -0.73252,0.008 -0.1632,0.66802 0.16774,0.73809 -0.42466,1.25621 -0.0228,-0.12639 -0.45429,-0.31326 -0.067,-0.53975 -0.39231,0.39242 0.31298,1.08425 -0.3744,1.47453 0.11494,-0.26226 0.0874,-0.42803 0.0301,-0.55523 -0.064,-0.14181 -0.16503,-0.23566 -0.14719,-0.3618 0.0256,-0.0609 0.27773,-0.48282 -0.12559,-0.1597 0.20632,0.42517 -0.0613,0.24344 -0.0613,0.23266 -0.54001,0.0748 -0.0108,-0.36446 -0.21463,0.24322 0.46663,0.0879 0.49802,0.63057 0.0735,0.11021 0.38514,0.36268 0.42322,0.71788 -0.0138,0.44693 0.33737,0.20205 0.62306,0.26694 0.63122,0.75476 -0.2806,-0.7637 0.008,0.0482 -0.45583,-0.13084 0.0382,0.0304 0.72817,0.26418 0.0925,0.36381 -0.19137,-0.14604 -0.0423,0.2549 -0.18989,0.23585 0.61112,-0.0248 -0.47396,0.24215 -0.316,0.28381 -0.16311,0.28147 -0.74577,0.45695 -0.95061,0.86339 -0.38099,0.11336 -0.47855,0.3508 -0.64326,0.96383 -0.01,0.34102 0.66748,1.78924 0.2631,0.93821 0.26332,0.43544 0.84908,1.7754 0.12374,1.61151 0,0 -0.80004,-0.24544 -0.8,-0.8 0,0 0.0778,-0.86177 -4e-5,-0.8 -0.0478,-0.69865 -1.02968,-0.6414 -1.208,-0.45029 -0.0725,-0.3579 -0.49607,-0.41276 -0.84694,-0.32457 -0.0387,-0.0709 -0.27462,0.22433 -0.28509,-0.12408 -0.0658,0.25506 -1.50892,0.14484 -0.69033,0.23365 -0.0558,0.18432 0.25284,0.002 0.009,0.2707 0.58888,0.47729 -0.16283,0.0228 -0.14847,0.10745 -0.40761,0.38074 -0.54543,-0.40862 -1.10931,-0.10362 -0.53992,-0.21191 -0.40334,-0.16055 -0.84138,0.0671 -0.14258,0.0943 -0.72882,0.41906 -0.47949,1.12366 -0.11453,0.12101 -0.84141,0.42653 -0.79991,0.8 -1.02787,-0.0547 -0.9112,-1.07253 -1.6,-1.6 -0.63173,-0.37391 -1.02987,0.82458 -1.6,0 -0.16633,-0.79557 -1.01453,-1.79755 -1.6,-1.22137 -0.29261,0.0505 -0.5179,-0.29021 -0.8,-0.37863 -0.25741,-0.0807 -0.57368,0.0974 -0.8,0 -0.35732,-0.15376 -1.6,-0.8 -1.6,-0.8 0,0 -0.22131,-0.21226 -0.99573,-0.25284 -0.81829,-0.1324 -0.88863,-1.14848 -1.34176,-1.63591 -0.032,-0.44631 0.19809,0.12909 0.068,-0.37385 0.6866,0.003 -0.10423,-0.11335 -0.15346,0.0641 -0.56211,-0.50651 -0.69162,-1.40324 -0.65703,-2.1662 -0.14747,-0.79317 0.0639,-1.8397 0.22874,-2.54791 0.44551,0.19282 -0.49762,-0.31425 -0.12863,-0.13249 0.15625,-0.24253 -0.47567,-0.91433 -0.19515,-1.14079 0.65995,-0.0723 0.78472,0.41881 0.57965,0.55953 0.29376,-0.67681 0.27627,0.26357 0.0283,0.10802 0.42923,0.0639 0.16375,-0.77484 0.18317,-0.96132 -0.008,-0.38557 1.36751,-0.0274 1.83627,-0.1496 3.20995,-6e-5 6.41989,0 9.62984,4e-5 0.0468,-0.043 -0.0712,-0.26323 0.032,-0.23027 z"
       id="path4121"
       inkscape:connector-curvature="0"
       sodipodi:nodetypes="ccccccccccccccccccsccccccccccccccccccccccccccccccsscccccccccccccccc"
       inkscape:export-xdpi="90"
       inkscape:export-ydpi="90" />
    <path
       style="fill:#444545;fill-opacity:1;fill-rule:nonzero;stroke:none"
       d="m 0.144531,155.81641 c -0.91833922,-0.61575 0.81587051,-0.40963 0,0 z"
       id="path4119" />
    <path
       style="fill:#444545;fill-opacity:1;fill-rule:nonzero;stroke:none"
       d="m 1.691406,155.23828 c -1.41530215,1.37664 -1.41918209,-1.65567 0,0 z"
       id="path4117" />
    <path
       style="fill:#444545;fill-opacity:1;fill-rule:nonzero;stroke:none"
       d="m 0.40625,155.03516 c -0.96574102,-0.37369 0.6424107,-0.6239 0,0 z"
       id="path4115" />
    <path
       style="fill:#444545;fill-opacity:1;fill-rule:nonzero;stroke:none"
       d="m 1.515625,154.50781 c -0.64679781,-0.98236 0.8140377,-0.58143 0,0 z"
       id="path4113" />
    <path
       style="fill:#444545;fill-opacity:1;fill-rule:nonzero;stroke:none"
       d="m 6.714844,152.71094 c -0.1098255,1.08054 -4.1683659,3.388 -2.203125,1.77334 0.2684574,-1.20043 0.7792576,-1.92438 1.84766,-2.03099 -1.1985142,-2.67459 4.672175,-1.38711 0.355465,0.25765 z"
       id="path4111" />
    <path
       style="fill:#444545;fill-opacity:1;fill-rule:nonzero;stroke:none"
       d="m 13.859375,150.03125 c -1.096187,-0.71385 1.392782,-1.25233 0,0 z"
       id="path4109" />
    <path
       style="fill:#444545;fill-opacity:1;fill-rule:nonzero;stroke:none"
       d="m 12.460938,149.28906 c 1.824282,-2.18559 0.932025,0.44891 0.300783,0.76189 1.924945,-1.02017 -0.397066,1.15773 -1.066405,1.56241 -0.94943,0.29782 -5.2893336,1.58868 -2.38281,0.22315 1.821128,-0.48885 1.091841,-2.08784 2.582042,-1.95311 -3.5305531,-0.19393 1.124299,-3.32733 0.56639,-0.59434 z"
       id="path4107" />
    <path
       style="fill:#444545;fill-opacity:1;fill-rule:nonzero;stroke:none"
       d="m 17.222656,147.82031 c 0.06034,0.38428 -1.729062,-0.28373 0,0 z"
       id="path4105" />
    <path
       style="fill:#444545;fill-opacity:1;fill-rule:nonzero;stroke:none"
       d="m 18.320312,147.51562 c -0.262861,0.96549 -2.145443,-0.14541 0,0 z"
       id="path4103" />
    <path
       style="fill:#444545;fill-opacity:1;fill-rule:nonzero;stroke:none"
       d="m 15.660156,147.76953 c -2.193147,1.21117 -1.500291,-2.27971 0,0 z"
       id="path4101" />
    <path
       style="fill:#444545;fill-opacity:1;fill-rule:nonzero;stroke:none"
       d="m 16.136719,147.61719 c -1.451792,-0.98992 1.325986,-1.6602 0,0 z"
       id="path4099" />
    <path
       style="fill:#444545;fill-opacity:1;fill-rule:nonzero;stroke:none"
       d="m 27.234375,146.05859 c -1.113475,-0.24231 0.54392,-0.45434 0,0 z"
       id="path4097" />
    <path
       style="fill:#444545;fill-opacity:1;fill-rule:nonzero;stroke:none"
       d="m 26.730469,145.98439 c -1.550028,0.28624 -1.121996,-1.79129 0,0 z"
       id="path4095" />
    <path
       style="fill:#444545;fill-opacity:1;fill-rule:nonzero;stroke:none"
       d="m 131.81641,143.72658 c -1.63024,-0.85684 0.46397,-1.87451 0,0 z"
       id="path4093" />
    <path
       style="fill:#444545;fill-opacity:1;fill-rule:nonzero;stroke:none"
       d="m 38.140625,143.03908 c -0.728577,-0.73667 1.003412,-0.49253 0,0 z"
       id="path4091" />
    <path
       style="fill:#444545;fill-opacity:1;fill-rule:nonzero;stroke:none"
       d="m 27.613281,143.24221 c -1.495817,-0.58247 1.015647,-1.63251 0,0 z"
       id="path4089" />
    <path
       style="fill:#444545;fill-opacity:1;fill-rule:nonzero;stroke:none"
       d="m 136.35937,143.10158 c -1.78926,-0.84407 1.6678,-1.09825 0,0 z"
       id="path4087" />
    <path
       style="fill:#444545;fill-opacity:1;fill-rule:nonzero;stroke:none"
       d="m 23.675781,142.89455 c -0.05876,0.78753 2.521539,1.61145 0.300797,1.15645 -1.007343,0.87939 -3.367484,-0.0251 -4.019504,1.74954 -2.043288,0.64367 -1.761429,-1.4026 -0.554683,-2.02727 0.517903,-1.47751 2.382408,-1.60911 3.88671,-1.80871 0.024,0.32775 0.403544,0.58151 0.38668,0.92999 z"
       id="path4085" />
    <path
       style="fill:#444545;fill-opacity:1;fill-rule:nonzero;stroke:none"
       d="m 37.652344,142.58986 c -0.851526,-1.04479 1.348762,-0.81065 0,0 z"
       id="path4083" />
    <path
       style="fill:#444545;fill-opacity:1;fill-rule:nonzero;stroke:none"
       d="m 29.554688,141.88283 c -1.97366,-0.9812 1.258019,-0.77543 0,0 z"
       id="path4081" />
    <path
       style="fill:#444545;fill-opacity:1;fill-rule:nonzero;stroke:none"
       d="m 131.62109,142.02346 c -1.56451,0.79021 -0.15299,-2.41297 0,0 z"
       id="path4079" />
    <path
       style="fill:#444545;fill-opacity:1;fill-rule:nonzero;stroke:none"
       d="m 37.351562,141.83596 c -1.382122,0.46933 0.613953,-2.42081 0,0 z"
       id="path4077" />
    <path
       style="fill:#444545;fill-opacity:1;fill-rule:nonzero;stroke:none"
       d="m 131.05469,142.90627 c 1.69954,3.86998 -2.89994,-2.53029 -0.8242,-1.90634 0.5065,0.48921 0.0353,1.59826 0.8242,1.90634 z"
       id="path4075" />
    <path
       style="fill:#444545;fill-opacity:1;fill-rule:nonzero;stroke:none"
       d="m 30.179688,140.88674 c -1.5044,0.8324 0.447815,-1.02934 0,0 z"
       id="path4073" />
    <path
       style="fill:#444545;fill-opacity:1;fill-rule:nonzero;stroke:none"
       d="m 136.00781,140.92974 c 1.16772,1.76936 -1.82274,1.53658 -0.42246,-0.34377 0.36947,-0.0382 0.18829,0.24615 0.42246,0.34377 z"
       id="path4071" />
    <path
       style="fill:#444545;fill-opacity:1;fill-rule:nonzero;stroke:none"
       d="m 36.214844,141.41411 c -1.428835,1.4565 -1.409482,2.1649 -1.234362,0.0974 0.873143,0.28761 1.238998,-2.20199 1.234362,-0.0974 z"
       id="path4069" />
    <path
       style="fill:#444545;fill-opacity:1;fill-rule:nonzero;stroke:none"
       d="m 129.60156,140.94536 c -1.68523,0.49884 0.20395,-1.90829 0,0 z"
       id="path4067" />
    <path
       style="fill:#444545;fill-opacity:1;fill-rule:nonzero;stroke:none"
       d="m 34.496094,140.70317 c -1.779738,-0.23367 0.661135,-1.41543 0,0 z"
       id="path4065" />
    <path
       style="fill:#444545;fill-opacity:1;fill-rule:nonzero;stroke:none"
       d="m 33.222656,139.76567 c 0.933668,0.17832 0.877728,2.19356 -0.453114,1.62083 -0.148173,-0.44057 -0.292928,-1.68647 0.453114,-1.62083 z"
       id="path4063" />
    <path
       style="fill:#444545;fill-opacity:1;fill-rule:nonzero;stroke:none"
       d="m 128.37891,140.79302 c -0.94061,-1.33117 1.38769,-1.62394 0,0 z"
       id="path4061" />
    <path
       style="fill:#444545;fill-opacity:1;fill-rule:nonzero;stroke:none"
       d="m 134.95703,141.40239 c -0.90388,-0.71048 -0.41995,-2.8439 0.37918,-0.8478 l -0.35938,0.82422 -0.0198,0.0236 z"
       id="path4059" />
    <path
       style="fill:#444545;fill-opacity:1;fill-rule:nonzero;stroke:none"
       d="m 24.617188,139.80864 c -0.52179,-0.20679 0.31611,-0.51033 0,0 z"
       id="path4057" />
    <path
       style="fill:#444545;fill-opacity:1;fill-rule:nonzero;stroke:none"
       d="m 35.035156,139.78914 c -1.411693,0.39272 0.190878,-1.18934 0,0 z"
       id="path4055" />
    <path
       style="fill:#444545;fill-opacity:1;fill-rule:nonzero;stroke:none"
       d="m 128.70703,139.59774 c -1.1267,-0.6141 1.06462,-0.55864 0,0 z"
       id="path4053" />
    <path
       style="fill:#444545;fill-opacity:1;fill-rule:nonzero;stroke:none"
       d="m 128.44922,139.16024 c -0.82343,1.32783 -0.65131,-1.40913 0,0 z"
       id="path4051" />
    <path
       style="fill:#444545;fill-opacity:1;fill-rule:nonzero;stroke:none"
       d="m 129.46484,139.29695 c -1.53223,0.37133 0.34474,-1.39066 0,0 z"
       id="path4049" />
    <path
       style="fill:#444545;fill-opacity:1;fill-rule:nonzero;stroke:none"
       d="m 128.70312,137.94539 c -2.32031,-1.10722 2.46312,-1.18223 0,0 z"
       id="path4047" />
    <path
       style="fill:#444545;fill-opacity:1;fill-rule:nonzero;stroke:none"
       d="m 39.652344,137.25399 c -0.808633,-0.91998 1.539692,-0.20987 0,0 z"
       id="path4045" />
    <path
       style="fill:#444545;fill-opacity:1;fill-rule:nonzero;stroke:none"
       d="m 129.62891,137.42586 c -0.96872,-0.96111 0.52727,-1.0528 0,0 z"
       id="path4043" />
    <path
       style="fill:#444545;fill-opacity:1;fill-rule:nonzero;stroke:none"
       d="m 51.1875,137.43756 c -1.628829,0.002 0.883028,-2.02918 0,0 z"
       id="path4041" />
    <path
       style="fill:#444545;fill-opacity:1;fill-rule:nonzero;stroke:none"
       d="m 126.08984,137.16022 c -1.22758,-1.02554 1.50401,-0.84628 0,0 z"
       id="path4039" />
    <path
       style="fill:#444545;fill-opacity:1;fill-rule:nonzero;stroke:none"
       d="m 127.50391,136.98443 c -0.84919,0.008 0.33041,-1.28842 0,0 z"
       id="path4037" />
    <path
       style="fill:#444545;fill-opacity:1;fill-rule:nonzero;stroke:none"
       d="m 137.32422,137.28131 c 1.41142,1.86816 -0.9898,5.26284 -0.73834,2.53894 0.20547,1.32112 -1.61057,0.64668 -0.0353,-0.32072 -0.41545,-3.80092 -0.14973,2.82509 -0.68361,-0.17579 -0.0615,-1.28628 0.20479,2.48054 -0.88681,0.61344 -0.19128,-1.30419 -0.16807,-3.51475 1.71082,-3.62074 0.23049,0.30482 0.47475,0.61474 0.63327,0.96487 z"
       id="path4035" />
    <path
       style="fill:#444545;fill-opacity:1;fill-rule:nonzero;stroke:none"
       d="m 135.67969,136.55865 c -0.75117,-0.58483 1.34819,-0.409 0,0 z"
       id="path4033" />
    <path
       style="fill:#444545;fill-opacity:1;fill-rule:nonzero;stroke:none"
       d="m 128.03906,136.67584 c -1.5794,-0.98239 3.11837,-2.53971 0.83193,-0.66764 -0.52781,-0.0402 -0.52719,0.45007 -0.83193,0.66764 z"
       id="path4031" />
    <path
       style="fill:#444545;fill-opacity:1;fill-rule:nonzero;stroke:none"
       d="m 127.21094,134.211 c -0.21574,-0.0359 0.10093,-0.21116 0,0 z"
       id="path4029" />
    <path
       style="fill:#444545;fill-opacity:1;fill-rule:nonzero;stroke:none"
       d="m 128.76562,133.9024 c 2.58904,-0.41563 0.3044,2.26263 2.34794,1.95294 0.78961,0.64234 3.80464,5.22529 1.23034,2.76532 -1.03898,-0.29796 2.54368,2.0766 0.77767,2.37093 1.2922,-0.92998 1.18895,0.82984 0.10583,1.30478 1.81293,-1.1614 0.69297,3.34089 -0.23449,1.31688 0.63886,-0.9235 -1.90678,-0.81743 -0.79671,-2.03919 -0.60431,-2.31143 -0.32153,1.0767 -1.03925,-0.87075 -1.83184,0.75328 0.80972,-0.66791 -1.4572,-0.21522 -0.0542,-1.34671 2.03223,0.42126 0.33251,-1.27771 2.05985,-2.02728 -1.36154,0.53408 -0.82444,-1.49569 1.44719,-0.50688 0.30805,-1.79963 -0.008,-2.76931 -0.93738,0.72592 -1.4096,-1.55618 -0.43423,-1.04298 z"
       id="path4027" />
    <path
       style="fill:#444545;fill-opacity:1;fill-rule:nonzero;stroke:none"
       d="m 133.66016,135.44147 c 0.22574,2.22692 -1.89757,0.24196 -2.18732,-0.3673 0.98758,-2.53785 1.19039,-0.53175 2.18732,0.3673 z"
       id="path4025" />
    <path
       style="fill:#444545;fill-opacity:1;fill-rule:nonzero;stroke:none"
       d="m 132.23437,133.79693 c -0.76291,-0.86347 1.25567,-0.39768 0,0 z"
       id="path4023" />
    <path
       style="fill:#444545;fill-opacity:1;fill-rule:nonzero;stroke:none"
       d="m 131.12109,134.55475 c -2.68011,-1.0481 2.07514,-2.3422 0.40998,-0.16042 l -0.20703,0.082 -0.20295,0.0784 z"
       id="path4021" />
    <path
       style="fill:#444545;fill-opacity:1;fill-rule:nonzero;stroke:none"
       d="m 133.52734,133.84772 c 1.48714,0.24807 -0.13635,2.2172 -0.75432,0.38232 -0.0405,-1.41617 -0.25094,-1.80982 0.75432,-0.38232 z"
       id="path4019" />
    <path
       style="fill:#444545;fill-opacity:1;fill-rule:nonzero;stroke:none"
       d="m 56.878906,132.84772 c -3.011081,0.95999 1.728257,-1.23156 0,0 z"
       id="path4017" />
    <path
       style="fill:#444545;fill-opacity:1;fill-rule:nonzero;stroke:none"
       d="m 46.210938,132.51178 c -0.249501,0.43726 -2.042442,-0.39892 -0.02343,-0.0199 l 0.02343,0.0199 z"
       id="path4015" />
    <path
       style="fill:#444545;fill-opacity:1;fill-rule:nonzero;stroke:none"
       d="m 132.59375,132.336 c -0.42456,0.29972 0.17088,-0.43932 0,0 z"
       id="path4013" />
    <path
       style="fill:#444545;fill-opacity:1;fill-rule:nonzero;stroke:none"
       d="m 55.042969,132.21881 c 0.652567,0.86683 -0.260744,-0.51193 -0.445296,0.79301 -1.321423,1.58197 -0.32758,-0.94716 0.445296,-0.79301 z"
       id="path4011" />
    <path
       style="fill:#444545;fill-opacity:1;fill-rule:nonzero;stroke:none"
       d="m 55.992188,132.87506 c -1.595537,-0.36111 1.643082,-1.29881 0.03127,-0.0117 l -0.03127,0.0117 z"
       id="path4009" />
    <path
       style="fill:#444545;fill-opacity:1;fill-rule:nonzero;stroke:none"
       d="m 1.695312,132.17584 c 2.7553886,0.18211 -1.76904211,0.52852 0,0 z"
       id="path4007" />
    <path
       style="fill:#444545;fill-opacity:1;fill-rule:nonzero;stroke:none"
       d="m 131.27734,132.8985 c -1.5242,-0.20066 0.0823,-3.31391 0.8634,-0.60512 -0.0804,0.35476 -0.616,0.40511 -0.8634,0.60512 z"
       id="path4005" />
    <path
       style="fill:#444545;fill-opacity:1;fill-rule:nonzero;stroke:none"
       d="m 127.01172,130.49615 c 0.20315,2.32627 -0.20144,0.93325 0.8786,0.60169 0.89704,2.55753 -1.26007,-0.10636 -0.5081,2.16781 0.49512,1.6012 -0.82239,0.11012 -0.0197,1.39041 -0.60332,2.90535 -0.48939,-2.9785 -0.73023,0.55872 -0.13607,2.55581 -1.29474,-3.26796 0.21511,-1.58983 0.41507,-1.30009 -2.65191,-2.19347 -0.73835,-3.27718 1.27596,1.04037 -1.03385,-1.18454 0.90266,0.14838 z"
       id="path4003" />
    <path
       style="fill:#444545;fill-opacity:1;fill-rule:nonzero;stroke:none"
       d="m 129.36328,129.70318 c 2.24896,-0.79881 1.36542,4.8079 0.24993,1.19931 -0.72399,-0.24376 1.96187,3.10123 -0.89456,2.36711 -1.18753,-0.3317 -0.19449,-2.71443 -1.28905,-2.97249 0.82167,0.46664 -1.80046,-2.33548 1.29292,-0.81632 l 0.21875,0.0977 0.42201,0.12469 z"
       id="path4001" />
    <path
       style="fill:#444545;fill-opacity:1;fill-rule:nonzero;stroke:none"
       d="m 59.355469,129.67588 c -2.270607,-1.47033 3.504437,-1.51718 0.156245,-0.28118 -0.02297,0.0972 -0.06146,0.23148 -0.156245,0.28118 z"
       id="path3999" />
    <path
       style="fill:#444545;fill-opacity:1;fill-rule:nonzero;stroke:none"
       d="m 0,128.19141 c 0.21536378,0.0633 -0.19258657,0.76493 0,0 z"
       id="path3997" />
    <path
       style="fill:#444545;fill-opacity:1;fill-rule:nonzero;stroke:none"
       d="m 120.66016,129.75 c 0.30534,-0.80067 -0.30281,-1.49537 0.12521,-2.23423 1.05999,0.20312 1.06903,2.35818 -0.12521,2.23423 z"
       id="path3995" />
    <path
       style="fill:#444545;fill-opacity:1;fill-rule:nonzero;stroke:none"
       d="m 124.18359,127.71875 c -1.52938,-0.9728 0.24506,-1.22516 0,0 z"
       id="path3993" />
    <path
       style="fill:#444545;fill-opacity:1;fill-rule:nonzero;stroke:none"
       d="m 123.67578,127.33984 c 1.07063,2.36187 1.40677,5.16755 0.95685,7.65625 -2.85458,-0.40649 0.18401,-4.56869 -1.48851,-2.72669 -0.66465,-1.13001 0.15761,-1.29858 -0.98476,-1.60554 0.25044,-1.85884 -0.0481,-2.66068 -0.93747,-3.37138 -0.64945,-2.22591 2.27465,-0.34417 2.45389,0.0474 z"
       id="path3991" />
    <path
       style="fill:#444545;fill-opacity:1;fill-rule:nonzero;stroke:none"
       d="m 59.511719,124.36719 c -2.244939,-0.61359 -0.616616,-1.98859 0,0 z"
       id="path3989" />
    <path
       style="fill:#444545;fill-opacity:1;fill-rule:nonzero;stroke:none"
       d="m 62.515625,123.85547 c -1.296173,-0.2753 0.255912,-1.02112 0,0 z"
       id="path3987" />
    <path
       style="fill:#444545;fill-opacity:1;fill-rule:nonzero;stroke:none"
       d="m 59.835938,123.45703 c 1.77476,-0.72085 0.232068,2.69111 1.093783,0.60186 0.797686,-1.19571 2.501468,0.5024 0.894533,1.05859 1.135241,0.15724 2.16899,1.49232 0.09372,1.71863 -0.844487,-1.0863 -2.857084,0.34214 -0.874975,-0.14488 2.305932,1.76671 -3.076852,0.51085 -0.71482,1.16001 -0.651836,0.39489 -1.993816,1.26928 -2.660142,1.51975 2.290098,0.48179 -3.331303,3.41179 -0.617208,0.80487 0.901693,-0.72603 -1.205978,-0.007 0.605439,-1.35525 -0.656767,0.1108 -1.905142,1.91392 -0.964874,0.0978 -1.429446,-1.08782 -2.166462,1.131 -0.808591,-0.0198 1.21757,0.0391 -0.132461,2.63407 -0.757792,0.90629 -0.46747,-0.4289 -0.02775,-2.15983 -1.203124,-1.99224 -0.07471,-2.18857 3.420978,-3.61343 3.214827,-0.77351 1.985002,2.90017 -1.468767,-3.08348 1.082041,-1.31616 -0.994122,-0.33229 -2.029909,-1.91376 -0.230479,-1.7114 0.452696,0.54882 0.371422,2.63783 1.089853,0.76152 -1.827963,-1.17966 2.699739,0.23182 0.230486,-1.36304 -0.404288,-0.68134 0.394787,-0.0477 0.527322,0.047 z"
       id="path3985" />
    <path
       style="fill:#444545;fill-opacity:1;fill-rule:nonzero;stroke:none"
       d="m 118.41016,124.14453 c -1.45503,-1.92562 1.11953,-2.34292 0,0 z"
       id="path3983" />
    <path
       style="fill:#444545;fill-opacity:1;fill-rule:nonzero;stroke:none"
       d="m 59.597656,122.51563 c 3.094966,1.49769 -2.444121,0.14067 -0.183611,-0.18363 l 0.08594,0.0977 0.09767,0.0859 z"
       id="path3981" />
    <path
       style="fill:#444545;fill-opacity:1;fill-rule:nonzero;stroke:none"
       d="m 64.292969,122 c -0.759235,-0.56828 0.811337,-1.01454 0,0 z"
       id="path3979" />
    <path
       style="fill:#444545;fill-opacity:1;fill-rule:nonzero;stroke:none"
       d="m 120.84766,121.42578 c 2.50585,0.61425 -1.5873,2.14457 0.70723,1.6178 0.45803,-2.53819 3.899,1.61911 1.23447,0.58604 1.99995,1.86144 -1.83012,0.399 -2.44909,-0.42563 1.09313,0.88218 2.17532,1.94654 3.4529,1.64057 1.19155,3.83017 -2.16289,0.37823 -3.17182,-0.0545 2.76432,2.00418 -1.25474,2.6542 -0.28133,1.73823 1.13233,0.89154 -1.25803,-1.08548 -0.36318,-0.96876 -0.78789,-0.74762 -2.19955,-1.44474 -1.07842,-2.3199 2.79107,2.5432 -2.05855,-1.29576 0.12902,-1.51972 -0.16772,1.21285 0.95351,-0.61028 1.82022,-0.29417 z"
       id="path3977" />
    <path
       style="fill:#444545;fill-opacity:1;fill-rule:nonzero;stroke:none"
       d="m 125.37109,121.04297 c 2.73339,2.12242 -3.01442,-0.40736 0,0 z"
       id="path3975" />
    <path
       style="fill:#444545;fill-opacity:1;fill-rule:nonzero;stroke:none"
       d="m 121.51172,120.92969 c -1.59693,0.002 0.318,-0.78884 0,0 z"
       id="path3973" />
    <path
       style="fill:#444545;fill-opacity:1;fill-rule:nonzero;stroke:none"
       d="m 124.59766,122.0625 c 1.97796,-0.99315 3.08297,2.41094 2.51162,3.14838 -0.23751,-1.11473 -1.67495,-4.10334 -0.97315,-1.14845 2.08988,2.17841 0.14779,2.19045 1.31252,3.164 -0.18867,1.35328 -1.70522,-1.19339 -0.76894,0.79301 -2.2429,3.57344 -2.00256,-0.79467 -0.8867,-0.87889 -2.19603,-0.0367 1.04389,-1.65089 -0.84007,-0.76192 -0.56873,-1.9281 -0.9288,-4.22244 -1.27767,-5.94907 0.48566,0.44915 0.74653,1.07349 0.92239,1.63294 z"
       id="path3971" />
    <path
       style="fill:#444545;fill-opacity:1;fill-rule:nonzero;stroke:none"
       d="m 62.320312,120.69141 c 2.006913,-1.74357 1.579877,2.91312 0.488251,0.6875 0.120418,1.31431 -1.153443,0.77559 -2.05858,1.78908 -1.60448,-0.62114 -1.295544,-1.8499 -0.331994,-1.34769 -1.328097,0.0421 1.538601,-3.01114 1.902323,-1.12889 z"
       id="path3969" />
    <path
       style="fill:#444545;fill-opacity:1;fill-rule:nonzero;stroke:none"
       d="m 62.023438,119.97656 c -1.888289,-0.52933 1.948509,-2.02773 0,0 z"
       id="path3967" />
    <path
       style="fill:#444545;fill-opacity:1;fill-rule:nonzero;stroke:none"
       d="m 32.304688,119.40625 c -2.018858,-0.5795 3.170222,-3.36201 0.109356,-0.0387 l -0.0625,0.0352 -0.04686,0.004 z"
       id="path3965" />
    <path
       style="fill:#444545;fill-opacity:1;fill-rule:nonzero;stroke:none"
       d="m 62.65625,117.03125 c -0.609968,-0.47279 1.322696,-0.25163 0,0 z"
       id="path3963" />
    <path
       style="fill:#444545;fill-opacity:1;fill-rule:nonzero;stroke:none"
       d="m 68.351562,114.30469 c -1.2512,-0.36911 1.106023,-1.28689 0,0 z"
       id="path3961" />
    <path
       style="fill:#444545;fill-opacity:1;fill-rule:nonzero;stroke:none"
       d="m 58.800781,114.14453 c -1.777046,0.0931 1.078884,-1.27515 0,0 z"
       id="path3959" />
    <path
       style="fill:#444545;fill-opacity:1;fill-rule:nonzero;stroke:none"
       d="m 69.6875,113.51953 c -1.345777,1.03594 0.420642,-1.14786 0,0 z"
       id="path3957" />
    <path
       style="fill:#444545;fill-opacity:1;fill-rule:nonzero;stroke:none"
       d="m 89.796875,110.81641 c 0.132175,-0.93933 2.306978,-2.07966 0.45703,-0.50775 -0.129486,0.18775 -0.278751,0.36493 -0.45703,0.50775 z"
       id="path3955" />
    <path
       style="fill:#444545;fill-opacity:1;fill-rule:nonzero;stroke:none"
       d="m 77.238281,109.89844 c -0.77848,-0.18501 1.680658,-1.22017 0,0 z"
       id="path3953" />
    <path
       style="fill:#444545;fill-opacity:1;fill-rule:nonzero;stroke:none"
       d="m 77.707031,109.85934 c 0.235948,-1.40082 1.377618,-0.71012 0.03516,-0.0115 l -0.03516,0.0115 z"
       id="path3951" />
    <path
       style="fill:#444545;fill-opacity:1;fill-rule:nonzero;stroke:none"
       d="m 77.398438,109.51168 c -0.316414,-1.57578 1.879006,-1.03132 0,0 z"
       id="path3949" />
    <path
       style="fill:#444545;fill-opacity:1;fill-rule:nonzero;stroke:none"
       d="m 77.6875,108.1523 c -0.04029,1.51719 -2.052398,1.54866 0,0 z"
       id="path3947" />
    <path
       style="fill:#444545;fill-opacity:1;fill-rule:nonzero;stroke:none"
       d="m 78.332031,111.04684 c -0.262356,-1.21505 2.414233,-2.91132 2.667979,-4.23813 1.305699,0.7029 -1.98786,3.7797 -2.667979,4.23813 z"
       id="path3945" />
    <path
       style="fill:#444545;fill-opacity:1;fill-rule:nonzero;stroke:none"
       d="m 77.527344,107.49215 c -0.986428,-0.70001 1.440046,-1.06345 0,0 z"
       id="path3943" />
    <path
       style="fill:#444545;fill-opacity:1;fill-rule:nonzero;stroke:none"
       d="m 87.910156,107.32027 c -1.610927,0.13798 1.017576,-1.72527 0,0 z"
       id="path3941" />
    <path
       style="fill:#444545;fill-opacity:1;fill-rule:nonzero;stroke:none"
       d="m 14.210938,106.66793 c 0.466667,0.9279 2.36112,0.13651 1.546882,2.40249 1.718028,1.73028 -2.910599,0.74445 -1.593767,2.12908 -1.292716,-0.97339 -4.9409191,-1.53987 -4.050795,-3.34762 1.799556,1.02967 2.633684,-1.93765 4.09768,-1.18395 z"
       id="path3939" />
    <path
       style="fill:#444545;fill-opacity:1;fill-rule:nonzero;stroke:none"
       d="m 83.585938,106.60543 c 2.807371,-0.80639 -2.817163,2.38659 -0.464817,0.28554 -1.545513,0.75103 -0.48227,-1.91521 0.464817,-0.28554 z"
       id="path3937" />
    <path
       style="fill:#444545;fill-opacity:1;fill-rule:nonzero;stroke:none"
       d="m 78.816406,106.83199 c 1.200427,0.27166 -1.375961,2.98324 -0.507812,0.0316 0.262519,-1.74459 1.363043,-0.67191 0.507812,-0.0316 z"
       id="path3935" />
    <path
       style="fill:#444545;fill-opacity:1;fill-rule:nonzero;stroke:none"
       d="m 63.914062,106.5 c -0.658291,-0.59135 0.944708,-0.85625 0,0 z"
       id="path3933" />
    <path
       style="fill:#444545;fill-opacity:1;fill-rule:nonzero;stroke:none"
       d="m 83.960938,106.26953 c -1.046532,-0.85426 4.04954,-1.60727 0.414056,-0.10926 l -0.414056,0.10926 z"
       id="path3931" />
    <path
       style="fill:#444545;fill-opacity:1;fill-rule:nonzero;stroke:none"
       d="m 80.007812,104.79297 c 0.634287,0.3095 -1.017116,-0.31883 -0.03513,-0.0585 l 0.01172,0.0312 0.0234,0.0273 z"
       id="path3929" />
    <path
       style="fill:#444545;fill-opacity:1;fill-rule:nonzero;stroke:none"
       d="m 78.066406,104.78897 c -1.072446,-1.02929 1.006015,-0.52661 0,0 z"
       id="path3927" />
    <path
       style="fill:#444545;fill-opacity:1;fill-rule:nonzero;stroke:none"
       d="m 77.308594,104.9335 c -1.033051,-0.97611 0.723636,-1.19412 0,0 z"
       id="path3925" />
    <path
       style="fill:#444545;fill-opacity:1;fill-rule:nonzero;stroke:none"
       d="m 18.148438,103.63663 c -0.80731,-0.54713 0.972712,-0.46921 0,0 z"
       id="path3923" />
    <path
       style="fill:#444545;fill-opacity:1;fill-rule:nonzero;stroke:none"
       d="m 82.183594,103.746 c -0.921903,-0.16781 0.690925,-1.09385 0,0 z"
       id="path3921" />
    <path
       style="fill:#444545;fill-opacity:1;fill-rule:nonzero;stroke:none"
       d="m 80.785156,103.36319 c -1.712059,-0.0374 1.054661,-0.82799 0,0 z"
       id="path3919" />
    <path
       style="fill:#444545;fill-opacity:1;fill-rule:nonzero;stroke:none"
       d="m 78.054688,103.74991 c -1.650832,0.72529 0.02409,-2.11799 0.05079,-0.0465 l -0.05079,0.0465 z"
       id="path3917" />
    <path
       style="fill:#444545;fill-opacity:1;fill-rule:nonzero;stroke:none"
       d="m 27.316406,83.136629 c -3.070127,0.347351 0.70818,-1.923827 0,0 z"
       id="path3915" />
    <path
       style="fill:#444545;fill-opacity:1;fill-rule:nonzero;stroke:none"
       d="M 0,82.496094 C 0.56169669,83.489079 3.0967419,85.375599 3.601562,84.82031 3.7929436,83.655461 6.5167415,87.104746 3.55859,85.847638 1.9773198,85.590901 1.634872,89.75413 1.230469,86.417969 0.05391831,86.492228 -0.36053088,84.695048 0,82.496094 z"
       id="path3913" />
    <path
       style="fill:#444545;fill-opacity:1;fill-rule:nonzero;stroke:none"
       d="m 12.28125,61.996094 c 1.180673,-1.425358 2.883563,-1.231727 0,0 z"
       id="path3911" />
    <path
       style="fill:#444545;fill-opacity:1;fill-rule:nonzero;stroke:none"
       d="m 16.828125,59.179688 c -1.318636,0.203576 4.214064,-1.795776 1.109385,-0.449232 l -0.867341,0.351219 -0.242044,0.09801 z"
       id="path3909" />
    <path
       style="fill:#444545;fill-opacity:1;fill-rule:nonzero;stroke:none"
       d="m 48.140625,11.90625 c 1.428643,0.223026 4.72359,1.143835 2.191406,3.0625 -2.301983,-0.244162 0.106984,2.169985 -0.312504,2.089869 0.591171,-0.284693 1.590223,-2.589797 2.343731,-2.226569 -0.254971,-0.313471 0.743324,-3.012236 0.69534,-0.519546 -0.563629,0.382491 1.087549,-2.335648 1.585946,0.546855 -1.143066,1.765223 0.967874,1.960201 1.632823,2.167963 0.900359,-1.658729 3.706976,-1.78565 4.89452,-0.47266 0.129495,-1.630271 3.581394,0.789889 0.792967,1.624988 0.977386,1.560151 2.468791,0.80954 -0.343738,1.167952 0.698679,0.578117 4.424588,-0.560287 2.257827,1.339846 1.24928,-0.801807 2.91793,1.662581 2.800783,-0.01562 2.422369,-2.175189 2.905538,1.605089 4.550785,-0.734389 2.15772,-0.338559 4.193814,1.499377 5.484387,1.968732 1.329866,-0.586712 2.757377,2.320194 4.691412,1.675764 3.53353,-1.740024 6.238144,3.701725 9.253912,1.308589 2.854179,-0.955953 5.439121,-1.205495 7.421869,1.941416 1.368698,-0.256965 2.869029,2.865091 3.441209,1.742162 1.42192,0.588192 0.7301,6.356004 0.85765,8.957438 0.12704,23.244258 -0.24986,46.806934 0.19317,69.85505 1.80291,1.99852 6.04077,-1.84106 6.39472,0.63688 -0.34629,2.06402 2.71017,2.87002 3.53921,4.83196 1.85938,0.61937 1.76406,3.38435 2.44923,4.13689 1.38731,-1.47465 3.83486,-1.89347 3.68357,-3.69111 -0.17224,-1.28985 3.28354,-3.47638 4.35169,-1.17983 0.16784,1.72645 1.39006,2.65902 2.64422,3.9497 0.82878,2.26102 3.62122,3.43247 4.19536,5.88673 0.90499,2.46952 3.23498,5.22626 3.38218,7.26942 1.24267,0.98091 0.8326,3.18869 3.18364,3.57805 1.71278,1.54178 5.81813,2.05385 4.00385,4.75786 1.30584,1.90332 -0.0772,5.76109 -1.87878,5.87118 0.0608,-2.8028 -0.27576,1.74455 -0.78179,-0.42175 -1.08041,-1.32145 1.95653,-1.90729 1.50002,-2.72661 -0.12334,1.76674 -3.2477,1.55818 -1.28498,0.17209 2.29531,-0.41247 -1.40196,0.44067 0.0163,-1.79302 -0.10557,-1.2184 -1.49245,-2.6883 -0.73041,-3.23044 -0.31178,1.07091 -3.60806,0.99243 -2.38284,1.79715 -0.0249,3.44273 -2.65347,0.84522 -1.11711,-0.34366 0.42539,-1.27278 0.98966,-1.8641 0.35509,-2.97256 -1.40518,-0.70193 -0.8929,-2.04575 -2.04269,-1.96099 1.63978,-2.23342 -0.80894,0.39773 -1.03915,-2.07811 1.04788,-0.71493 -0.99665,-0.72035 -1.14858,-1.25409 -0.7315,1.33382 -1.94254,-1.4676 -0.2381,-0.73784 1.9045,-0.47008 -2.49784,-0.14944 -0.58587,-1.8361 1.06724,-0.32951 -2.16536,0.0608 -0.5079,-0.99211 1.34212,1.105 2.8759,1.92481 0.68365,0.20308 -2.13517,-1.40789 0.65428,-1.14492 0.63265,-1.40247 -1.89575,-1.67533 -1.54623,2.66524 -2.22623,-0.56238 1.12406,-3.01412 -0.31162,1.53517 -0.90206,-0.83629 -0.4283,-1.41535 1.81387,-4.2257 0.0897,-1.94902 0.25893,2.6292 -2.23151,0.13464 -2.55876,-0.43328 -1.05917,-0.65094 -0.20285,-3.01845 -1.01558,-2.00019 -0.55528,-1.42565 -1.03481,-3.72283 -1.04236,-4.78131 -0.7318,1.54474 0.92899,3.04686 -0.66769,1.58213 0.69318,2.09276 2.07988,4.86279 1.35967,6.8709 -1.37369,-0.57209 -0.59331,-2.98546 -2.64484,-1.17159 0.49509,-1.38149 -0.81582,-3.36727 0.2892,-3.55855 -1.57605,-0.3278 -0.86343,-1.52029 -1.03528,0.87897 -1.2528,0.40176 -2.53749,-2.24373 -3.21485,-1.68745 0.61348,0.81668 -1.05745,1.78687 0.47645,0.95725 2.70663,0.87981 0.20692,0.32289 1.4846,0.94178 1.26004,0.57013 -1.12495,1.5179 0.79324,0.66401 2.57334,2.40696 -1.3951,2.34736 -0.69158,1.945 1.00712,0.72879 -1.28915,-0.41275 -0.46056,0.9141 -0.60531,-1.06535 -3.07073,-1.48879 -3.32836,-2.67974 0.67752,-0.29836 -1.81577,-0.54555 -1.51199,-1.89437 -1.08696,-1.24693 -2.60029,-1.41836 -1.95734,-1.91781 -1.2384,0.15706 -3.14421,-1.66777 -2.89054,-1.33966 -2.01445,-0.55095 -0.25862,-1.99976 -0.92562,-3.61706 1.39865,-2.41514 0.99433,5.03469 1.15228,1.05858 0.12895,-1.33428 2.53691,0.16898 0.26558,-0.87089 -1.59566,-3.02652 -3.30749,3.44883 -6.0662,0.7774 -2.53395,0.2421 -0.23481,-2.50445 -1.8942,-2.4021 0.76549,2.12188 -3.470618,-0.13766 -4.371189,-0.0276 -2.182632,0.35234 -4.688466,1.53541 -5.824243,-0.53929 -1.841785,0.0209 -2.759703,-2.0173 -0.816404,-3.57772 -1.152537,0.42168 -2.257243,3.67051 -4.050771,1.57845 -0.429768,-0.46764 1.302153,-2.05251 -0.351546,-1.16825 -1.907361,0.11279 -1.079201,-0.0314 -0.628902,-1.19947 -0.535209,1.1935 -3.59446,0.62971 -1.363308,0.17193 2.366717,-1.81745 -0.853673,0.91498 -1.148429,-1.30038 -0.0084,-1.53164 3.506642,-0.8772 0.519552,-1.21077 -1.257636,2.10136 -1.132072,0.34423 -2.246118,1.29342 -1.824349,1.99739 -0.531611,-4.165956 -1.29297,-0.11729 -1.174931,2.5867 -1.721251,-1.43639 -0.414068,-2.29687 -0.876251,2.06659 -1.002515,1.42554 -2.351581,1.61337 -0.464665,1.18133 2.181558,-1.42258 0.343735,1.51175 -0.548764,0.38925 -2.059161,0.28174 -0.546878,0.3981 -2.036912,1.66912 0.6708,-0.66909 0.738264,0.62444 0.745948,1.89357 -1.512539,0.15737 -1.480464,1.83182 1.007244,-0.47109 2.194806,-1.58982 2.589836,-0.0666 -0.779924,0.87101 -2.718263,2.35663 -0.667978,1.57441 -0.09808,1.46108 -1.313994,-0.21511 -1.117167,2.0274 -1.368437,0.17299 -2.333132,-0.35257 -2.480473,-0.64468 -0.644568,2.53257 -0.28123,-0.47016 -0.996095,-0.38313 -0.640377,0.90806 -0.298006,4.05165 -0.734354,1.50764 -0.750631,-2.2208 0.143682,3.50911 -0.98437,0.71457 -0.867329,-0.44573 0.818749,1.92933 -1.312515,2.05041 -0.899419,0.30671 1.005787,-3.08175 -0.21094,-0.75768 -0.770641,2.56746 -0.466423,-1.75143 -0.798152,0.73254 -0.407005,1.31598 -1.875318,1.51406 -1.785193,1.73846 -1.106559,-0.63261 -2.446883,1.58611 -3.121093,-0.55051 0.71364,-1.57317 3.339416,-1.26555 3.265632,-3.33592 -2.225313,2.94987 -4.227081,-1.07523 -1.539052,-2.62502 2.207692,-1.27297 -1.244021,-4.41998 1.566384,-4.44534 1.345841,-1.88318 2.241437,-2.07561 3.503924,-0.87124 0.77588,-1.4592 4.895179,1.56763 2.933594,-0.262 -2.56991,0.0927 -4.017986,-2.64126 -0.968736,-3.531174 2.162983,-1.281276 -2.135829,-0.09141 -1.847657,1.273694 -1.922572,-0.28543 -3.33239,0.18548 -4.546864,1.65964 -1.598801,-0.15425 -1.66439,1.84725 -1.667955,2.21475 -2.3262,0.0704 -1.43014,4.90796 -4.300794,2.93721 -0.993099,0.18385 2.980756,1.33659 0.984384,2.81638 -0.944124,0.28512 -2.969587,0.60104 -0.949232,0.77306 -0.700498,2.26456 -1.362324,0.19954 -1.546877,0.58225 -0.06576,1.53021 -1.978201,2.05304 -2.253878,2.57425 0.170118,-0.44064 -1.348901,3.07715 0.214871,1.83999 1.902674,-0.17136 4.000783,2.28565 0.890626,3.17617 -1.481238,0.7595 -0.344137,1.59225 -2.089832,2.19129 1.530144,-0.85191 0.298752,1.66524 -0.484399,1.26949 -0.331895,1.2404 -2.389603,-0.4646 -2.070296,1.41368 -0.633198,2.2293 -2.501562,-0.92059 -2.343757,2.19112 -0.994664,0.55177 -1.369097,0.46332 -2.582016,1.40256 1.464509,0.17275 -0.533153,3.28292 -1.593737,2.41798 -0.113512,2.4629 -2.866348,-0.60207 -1.902338,1.8243 0.0069,0.88288 -1.992407,-0.63811 -2.242222,0.94086 1.685652,-0.67668 0.488418,0.66281 -0.04683,0.21862 -0.426213,-0.29688 -2.351953,1.66697 -1.49221,1.39077 0.7872,-1.11641 1.456739,0.48954 0.999984,0.55076 1.510257,-0.67149 -1.524292,0.19699 -0.824226,1.21502 -0.343003,-1.03223 0.384653,-2.05473 -0.468738,-0.18731 -0.293028,0.87676 -0.730105,-0.39615 -1.730466,0.6763 -1.638812,0.0137 -2.264822,4.24655 -1.792964,0.54685 -1.469027,-0.30465 -2.12807,1.73091 -3.156244,2.12508 -1.193701,-1.41379 0.105835,0.68302 -1.03904,0.0624 -0.02962,-0.8052 -2.868978,2.31868 -2.242156,-0.0668 0.221671,-1.12013 2.501917,0.62166 0.144492,-0.92564 -1.148972,0.34115 -1.355972,2.52572 -2.00782,2.78135 0.142801,1.33271 -0.717539,-0.52861 -0.906283,1.04266 -1.292211,0.33964 -0.966898,-2.98292 -1.476542,-1.09377 1.483651,2.21938 -1.104894,1.72833 -1.730478,0.33238 -0.679781,0.93994 1.855329,1.50928 -0.621099,2.00384 0.360739,-0.82206 -0.215734,-2.73395 1.476552,-2.23817 1.094314,-1.1602 1.732749,-1.44092 2.476559,-3.14801 1.592773,-2.59856 4.645681,-1.32199 5.503892,-0.34729 -1.736278,-2.071 2.556715,0.74114 1.164075,-0.79634 -2.231567,-2.16033 2.275002,-4.38822 3.867167,-5.43379 1.614894,-0.67221 2.235843,0.071 2.058595,-2.08997 1.153845,-1.51376 2.734065,-3.96993 4.343739,-2.80468 0.07543,-0.47997 -1.851457,-0.87206 -0.765629,-2.81265 -1.346942,-2.5276 3.626446,-1.47361 0.675791,-2.08172 -1.323769,-2.07206 2.373259,-3.92769 2.292973,-6.24576 -0.614442,1.93645 -3.447289,3.77877 -5.386715,3.43379 -0.405021,-0.91375 -1.490877,-1.81293 -0.113262,-2.57817 1.109374,0.0929 1.580008,1.99298 0.691383,-0.0587 -0.955237,0.0737 -1.758007,-1.7191 -1.195337,-0.0353 -0.999054,2.74608 -1.138073,-1.35832 -0.999985,1.82436 -0.635696,0.90489 0.107671,-1.2196 -0.44918,0.31641 2.000689,3.13348 -1.754417,2.10361 -1.968754,-0.5428 -0.927778,-2.58645 -1.173329,1.95966 -2.667957,-0.71492 -0.201639,-2.05711 -2.277759,0.51039 -3.72268,0.94519 -0.05362,1.93487 -4.57243,0.57181 -2.121103,0.79645 1.328101,-1.00872 -0.08769,-2.23513 0.984382,-3.28522 -1.64439,1.42148 -1.893641,-1.62732 -0.347648,-2.51531 -1.008294,-1.24474 -1.951392,-4.62519 -1.839837,-4.96513 -1.042858,1.79249 -0.549336,-3.62364 1.011731,-3.13287 -0.332077,-1.18706 -2.945315,2.44635 -1.765624,3.42968 0.09677,2.36584 -5.215699,3.73058 -6.207019,1.62094 0.670275,-0.39986 -1.439233,-2.27288 -2.12499,-2.54692 -2.241563,-0.27442 0.571054,-2.41023 -1.574209,-1.41393 -1.408911,-0.53315 2.048121,-2.10825 2.164079,-2.96086 -0.207328,1.06379 2.393968,1.10157 0.902389,2.55903 0.756435,-0.98376 2.384646,-2.50395 2.097696,-0.18306 2.095016,-0.12207 1.141476,-2.23179 -0.328124,-1.99641 2.01013,-0.19884 0.430227,-1.21772 -0.730437,-0.008 -1.509757,0.34092 -2.288581,-0.90162 -3.687485,-0.48874 -0.312125,-0.68122 1.913706,-1.66912 0.531274,-1.12098 -1.133098,0.24244 0.223446,-1.937627 -0.878914,-0.5385 -1.679756,-0.98081 2.882339,-3.330722 1.55468,-3.132813 -1.389875,0.879522 -2.096763,2.555553 -2.152341,3.761623 -1.112339,-0.46646 -0.509328,-1.755 -1.679908,-2.114016 0.803708,-0.616119 -0.108671,-2.069606 -0.550806,-1.04312 -0.77682,-0.04727 -0.569464,-2.384443 -0.01951,-1.007808 0.857875,-0.577175 -0.385167,-1.514971 1.269539,-2.062493 -0.743083,-2.239241 2.848524,-6.267852 3.730449,-3.765633 -2.511772,-0.712813 2.550753,-3.672061 -0.531236,-1.777324 -1.006075,-1.223352 0.207471,-3.700291 1.66406,-2.816404 -2.527094,-1.163411 1.934523,-3.021093 2.718736,-0.863297 1.987565,2.244839 3.740409,-2.244255 4.582027,-3.218739 0.375781,1.258915 3.275307,1.177277 4.354628,-0.542228 1.865897,-1.87734 -0.288541,-4.568222 -0.698403,-6.469461 -2.038367,0.779156 -1.035757,-1.650497 0.476574,-0.718729 2.610338,-0.992584 -1.044404,-3.496254 0.07031,-3.597655 -1.135525,0.508562 -1.314331,1.942536 -2.8203,1.42578 -0.72325,0.533962 0.742691,0.25511 -0.792989,0.460932 -1.849785,0.429599 -2.396782,4.884427 -3.124962,1.328066 -1.462811,-2.019751 -1.386378,0.407374 -0.304679,0.484381 -0.624436,1.843515 -1.84888,-2.062519 -3.382791,-0.582039 -1.175044,-0.42679 -4.196931,0.709848 -2.812494,0.839826 -2.248081,-0.157426 -6.935999,-0.661332 -5.667961,-3.773404 -0.958577,-0.255767 -2.41169,-2.71157 -1.554687,-2.816386 -0.873515,1.808817 1.702407,1.0715 1.722668,-0.101584 3.561299,0.822573 -3.6167111,-1.843138 -1.269524,-0.625028 -1.445688,-0.503459 -5.3676772,-1.137684 -4.609431,-3.132798 1.7575679,-1.462625 -1.2560251,1.602198 0.660149,0.289077 1.6646808,-0.257939 0.9162088,-2.023982 2.859366,-1.687484 0.117663,-0.880816 2.956969,-3.215934 3.117194,-2.339821 1.702192,1.097515 3.042174,-0.39268 0.953136,-0.804701 2.005664,-1.839474 4.51234,-3.241568 7.417967,-3.160168 1.28224,0.696112 -1.462066,-0.398151 0.07031,0.718737 -0.606967,1.037926 -0.103309,2.732092 -1.441418,2.894503 1.373451,0.821061 3.227815,1.322966 5.13281,0.894541 0.968321,0.414631 3.099266,0.421684 3.039076,0.617155 0.531992,-2.034386 1.201177,-2.256402 2.636705,-1.984349 -0.641541,3.136352 1.519293,-2.056215 -1.519502,-1.40233 -1.317386,-0.323393 -1.49712,2.365044 -1.347679,0.02734 1.263375,-2.284211 -4.81202,-3.649048 -1.523452,-4.960917 0.657665,1.449753 1.706984,6.181497 4.042981,3.734358 0.695946,2.656462 5.315511,1.360292 2.992176,-0.972631 -0.915465,1.384597 -2.802398,-1.479908 -3.214828,0.88276 -2.614134,0.698114 -2.676416,-3.751044 -0.882807,-3.832014 -1.22656,-1.715386 -4.461958,1.296475 -2.984361,-1.64062 -0.229132,0.185665 -0.733325,1.943711 -1.636727,1.042959 -2.061563,0.39174 -3.988087,-0.623991 -3.562521,-2.914065 -1.227218,-3.357173 -3.826353,-4.656401 -6.25,-6.695343 -1.774586,-0.227348 -2.13245,-2.83879 -4.27342,-2.472679 1.045087,-0.652613 1.003812,0.784454 2.189477,-3.053767 0.08575,-1.321273 -0.608345,-3.000366 1.666008,-1.821245 3.931435,0.394394 8.107694,-1.808381 9.039056,-5.531155 -1.062693,3.360487 1.249961,-2.859352 0.535172,-3.367207 1.737573,-1.660267 2.314117,-4.298686 4.019513,-5.816389 1.407585,1.351061 -2.663462,2.118802 0.25783,1.269536 2.010097,-0.891962 4.36197,-1.900702 5.695312,-4.121091 2.51227,0.137992 -1.358163,1.499139 0.554684,1.789039 0.748665,3.277694 -0.159291,-1.82129 2.488269,-1.191405 -1.769573,1.519147 -2.002891,-1.522674 -2.863252,-1.02735 0.2729,-1.023986 4.238174,-3.502658 2.714839,-2.242204 2.071878,-0.172053 -1.897634,0.744232 0.406247,1.457022 2.008392,-1.865257 5.749033,-0.642525 7.136724,-4.128913 0.581593,-0.97245 1.991673,-4.5362677 2.613241,-1.898388 z"
       id="path3129" />
  </g>
</svg>
